# xmcd CD database file
# Copyright (C) 1997 Ti Kan
#
# Track frame offsets:
#  150
#  16640
#  34130
#  47067
#  63767
#  75282
#  89287
#  100847
#  113517
#  126842
#
# Disc length: 1898 seconds
#
# Revision: 1
# Processed by: cddbd v1.4b41PL1 Copyright (c) Steve Scherf et al.
# Submitted via: CDWizzard Release:4.31
#
DISCID=6707680a
DTITLE=Barbara Mandrell - Greatest Hits
DYEAR=1900
DGENRE=
TTITLE0=I Was Country When Country Wasn't Cool
TTITLE1=Years
TTITLE2=Wish You Were Here
TTITLE3=The Best Of Strangers
TTITLE4=Happy Birthday Dear Heartache
TTITLE5=(If Loving You Is Wrong) I Don't Want To Be Right
TTITLE6=Crackers
TTITLE7=One Of A Kind Pair Of Fools
TTITLE8=In Times Like These
TTITLE9=There's No Love In Tennessee
EXTD=
EXTT0=
EXTT1=
EXTT2=
EXTT3=
EXTT4=
EXTT5=
EXTT6=
EXTT7=
EXTT8=
EXTT9=
PLAYORDER=
